<?xml version="1.0" encoding="utf-8"?>
<svg id="master-artboard" viewBox="0 0 290.0720520019531 306.9637756347656" version="1.1" xmlns="http://www.w3.org/2000/svg" x="0px" y="0px" style="enable-background:new 0 0 1400 980;" width="290.0720520019531px" height="306.9637756347656px"><rect id="ee-background" x="0" y="0" width="290.0720520019531" height="306.9637756347656" style="fill: white; fill-opacity: 0; pointer-events: none;"/>


<path class="st1" d="M987.4,238.2L931,189.9c-7-6-17.4-5.3-23.6,1.5l-24.2,26.8H828c-7.9,0-14.2,6.4-14.2,14.2v153.9&#10;&#9;&#9;&#9;c0,15.6,12.6,28.2,28.2,28.2h122c15.6,0,28.2-12.6,28.2-28.2V248.6C992.2,244.6,990.4,240.8,987.4,238.2z M948.5,373l-5.3,5.3&#10;&#9;&#9;&#9;l-16.4-16.4h-57.6l-16.4,16.4l-5.3-5.3l16.4-16.4V299l-16.4-16.4l5.3-5.3l16.4,16.4h57.6l16.4-16.4l5.3,5.3L932.1,299v57.6&#10;&#9;&#9;&#9;L948.5,373z M966.4,256.9c-3.3,3.6-8.8,4-12.5,0.9l-37.3-31.1c-0.8-0.7-1.3-1.7-1.3-2.8v-10.2c0-2,1.6-3.6,3.6-3.6h9.2&#10;&#9;&#9;&#9;c0.9,0,1.8,0.4,2.5,1l35.2,33.2C969.5,247.7,969.7,253.3,966.4,256.9z" style="fill: rgb(88, 89, 91);" transform="matrix(1, 0, 0, 1, -755.4774169921875, -145.31993103027344)"/><path d="M 826.799988 185.800003 H 871.399986 V 210.100002 H 826.799988 V 185.800003 Z" class="st1" style="fill: rgb(88, 89, 91);" transform="matrix(1, 0, 0, 1, -755.4774169921875, -145.31993103027344)"/><path d="M 875.099976 304.899994 H 920.899975 V 350.699993 H 875.099976 V 304.899994 Z" class="st1" style="fill: rgb(88, 89, 91);" transform="matrix(1, 0, 0, 1, -755.4774169921875, -145.31993103027344)"/>

</svg>