<?xml version="1.0" encoding="utf-8"?>
<svg id="master-artboard" viewBox="0 0 286.0303955078125 294.03302001953125" version="1.1" xmlns="http://www.w3.org/2000/svg" x="0px" y="0px" style="enable-background:new 0 0 1400 980;" width="286.0303955078125px" height="294.03302001953125px"><defs><linearGradient id="gradient-0" gradientUnits="objectBoundingBox" x1="0.5" y1="0" x2="0.5" y2="1">
                <stop offset="0" style="stop-color: #ffffff"/>
                <stop offset="1" style="stop-color: #cccccc"/>
              </linearGradient></defs><rect id="ee-background" x="0" y="0" width="286.0303955078125" height="294.03302001953125" style="fill: rgb(255, 255, 255); fill-opacity: 0; pointer-events: none;"/>


<path d="M 649 738.4000244140625 L 626.7999877929688 715.5999755859375 L 649.5999755859375 693.4000244140625 L 630.4000244140625 673.5999755859375 L 607.5999755859375 695.7999877929688 L 585.4000244140625 673 L 565.5999755859375 692.2000122070312 L 587.7999877929688 715 L 565 737.2000122070312 L 584.2000122070312 757 L 607 734.7999877929688 L 629.2000122070312 757.5999755859375 Z" class="st1" style="fill: rgb(88, 89, 91); fill-opacity: 1;" transform="matrix(1, 0, 0, 1, -461.4752368927002, -570.4970970153809)"/><path d="M 727.5 628.2999877929688 L 696 596.7999877929688 L 669.7999877929688 623.0999755859375 L 664.5 639.7000122070312 L 641.4000244140625 662.7999877929688 L 661.5999755859375 683 L 684.7000122070312 659.9000244140625 L 701.2999877929688 654.5999755859375 Z" class="st1" style="fill: rgb(88, 89, 91); fill-opacity: 1;" transform="matrix(1, 0, 0, 1, -461.4752368927002, -570.4970970153809)"/><path d="M 694.2999877929688 835.5 L 725.7999877929688 804 L 699.5 777.7999877929688 L 682.9000244140625 772.5 L 659.7999877929688 749.4000244140625 L 639.5999755859375 769.5999755859375 L 662.7000122070312 792.7000122070312 L 668 809.2999877929688 Z" class="st1" style="fill: rgb(88, 89, 91); fill-opacity: 1;" transform="matrix(1, 0, 0, 1, -461.4752368927002, -570.4970970153809)"/><path d="M 487.1000061035156 802.2999877929688 L 518.5999755859375 833.7999877929688 L 544.7999877929688 807.5 L 550.0999755859375 790.9000244140625 L 573.2000122070312 767.7999877929688 L 553 747.5999755859375 L 529.9000244140625 770.7000122070312 L 513.2999877929688 776 Z" class="st1" style="fill: rgb(88, 89, 91); fill-opacity: 1;" transform="matrix(1, 0, 0, 1, -461.4752368927002, -570.4970970153809)"/><path d="M 520.2999877929688 600 L 488.79998779296875 631.5 L 515.0999755859375 657.7999877929688 L 531.7000122070312 663.0999755859375 L 554.7999877929688 686.2000122070312 L 575 666 L 551.9000244140625 642.9000244140625 L 546.5999755859375 626.2999877929688 Z" class="st1" style="fill: rgb(88, 89, 91); fill-opacity: 1;" transform="matrix(1, 0, 0, 1, -461.4752368927002, -570.4970970153809)"/>

</svg>