<?xml version="1.0" encoding="utf-8"?>
<svg id="master-artboard" viewBox="0 0 1400 980" version="1.1" xmlns="http://www.w3.org/2000/svg" x="0px" y="0px" style="enable-background:new 0 0 1400 980;" width="1400px" height="980px">


<g transform="matrix(1, 0, 0, 1, 0, 0)">
		<path d="M 1157.5 707.7999877929688 L 1239.199951171875 789.5 L 1277.5999755859375 749.9000244140625 L 1196.5 668.7000122070312 Z" class="st1" style="fill: rgb(88, 89, 91);"/>
		<path class="st1" d="M1131.5,762.3l40.6,45.2l-1.3,1.3c-3.6,3.8-9.6,4-13.5,0.6l-14-12c-3.2-2.7-7.9-2.5-10.8,0.4&#10;&#9;&#9;&#9;c-3.2,3.2-3.1,8.5,0.3,11.5l21.7,19.4c4.6,4.1,11.5,4.1,16,0l47.1-42.4l-55.1-52.6L1131.5,762.3z" style="fill: rgb(88, 89, 91);"/>
		<path d="M 1348.9000244140625 617.2999877929688 L 1330.9000244140625 598.7999877929688 L 1305 619.2000122070312 L 1294 607.4000244140625 L 1216.199951171875 665.9000244140625 L 1225.0999755859375 677.7999877929688 L 1292.199951171875 627.2999877929688 L 1321.0999755859375 658.5999755859375 L 1271.800048828125 721.0999755859375 L 1283.5 730.2999877929688 L 1340.699951171875 657.7999877929688 L 1328 644.2000122070312 Z" class="st1" style="fill: rgb(88, 89, 91);"/>
	</g><path class="st1" d="M1050.1,748.8l-15.8-16.3c-2.5-2.6-4.2-5.8-4.8-9.3l-6.5-32.8c-3-15.3-16.4-26.3-32-26.3h-59.5h-59.5&#10;&#9;&#9;&#9;c-15.6,0-29,11-32,26.3l-6.5,32.8c-0.7,3.5-2.4,6.7-4.8,9.3l-15.8,16.3c-3.3,3.4-5.2,8.1-5.2,12.9v32.8c0,4.2,3.4,7.6,7.6,7.6h8.9&#10;&#9;&#9;&#9;v13.8c0,10.8,8.8,19.6,19.6,19.6c10.8,0,19.6-8.8,19.6-19.6v-15.5h68.1h68.1v15.5c0,10.8,8.8,19.6,19.6,19.6&#10;&#9;&#9;&#9;c10.8,0,19.6-8.8,19.6-19.6v-13.8h8.9c4.2,0,7.6-3.4,7.6-7.6v-32.8C1055.3,756.9,1053.4,752.3,1050.1,748.8z M853.8,788&#10;&#9;&#9;&#9;c-8.2,0-14.9-6.7-14.9-14.9c0-8.2,6.7-14.9,14.9-14.9c8.2,0,14.9,6.7,14.9,14.9C868.7,781.4,862,788,853.8,788z M845.9,731.9&#10;&#9;&#9;&#9;c0,0,2.1-41.3,21.1-48.7c14.2-5.5,48.1-5.6,64.4-5.2c16.3-0.3,50.2-0.3,64.4,5.2c19,7.4,21.1,48.7,21.1,48.7&#10;&#9;&#9;&#9;c-21.8-8.3-69-9.9-85.5-10.2C915,722,867.7,723.6,845.9,731.9z M1009,788c-8.2,0-14.9-6.7-14.9-14.9c0-8.2,6.7-14.9,14.9-14.9&#10;&#9;&#9;&#9;c8.2,0,14.9,6.7,14.9,14.9C1023.9,781.4,1017.2,788,1009,788z" style="fill: rgb(88, 89, 91);" transform="matrix(1, 0, 0, 1, 0, 0)"/><path class="st1" d="M938.8,601.7c-1.2-10.5-10-17-10-17s-8.8,6.5-10,17c-1.2,10.5,5.4,12.1,10,12.1&#10;&#9;&#9;&#9;C933.4,613.8,940,612.3,938.8,601.7z" style="fill: rgb(88, 89, 91);" transform="matrix(1, 0, 0, 1, 0, 0)"/><path class="st1" d="M986.1,601.5c-4.7-9.5-15.2-12.7-15.2-12.7s-6.1,9.1-3.7,19.4s9.1,9.6,13.5,8&#10;&#9;&#9;&#9;C985.1,614.6,990.8,611,986.1,601.5z" style="fill: rgb(88, 89, 91);" transform="matrix(1, 0, 0, 1, 0, 0)"/><path class="st1" d="M1000.5,638.1c-4.7-9.5-15.2-12.7-15.2-12.7s-6.1,9.1-3.7,19.4c2.4,10.3,9.1,9.6,13.5,8&#10;&#9;&#9;&#9;C999.5,651.3,1005.2,647.6,1000.5,638.1z" style="fill: rgb(88, 89, 91);" transform="matrix(1, 0, 0, 1, 0, 0)"/><path class="st1" d="M873.8,601.5c4.7-9.5,15.2-12.7,15.2-12.7s6.1,9.1,3.7,19.4c-2.4,10.3-9.1,9.6-13.5,8&#10;&#9;&#9;&#9;C874.8,614.6,869.1,611,873.8,601.5z" style="fill: rgb(88, 89, 91);" transform="matrix(1, 0, 0, 1, 0, 0)"/><path class="st1" d="M859.4,638.1c4.7-9.5,15.2-12.7,15.2-12.7s6.1,9.1,3.7,19.4c-2.4,10.3-9.1,9.6-13.5,8&#10;&#9;&#9;&#9;C860.4,651.3,854.7,647.6,859.4,638.1z" style="fill: rgb(88, 89, 91);" transform="matrix(1, 0, 0, 1, 0, 0)"/><path class="st1" d="M938.8,639.4c-1.2-10.5-10-17-10-17s-8.8,6.5-10,17c-1.2,10.5,5.4,12.1,10,12.1&#10;&#9;&#9;&#9;C933.4,651.5,940,649.9,938.8,639.4z" style="fill: rgb(88, 89, 91);" transform="matrix(1, 0, 0, 1, 0, 0)"/><path d="M 649 738.4000244140625 L 626.7999877929688 715.5999755859375 L 649.5999755859375 693.4000244140625 L 630.4000244140625 673.5999755859375 L 607.5999755859375 695.7999877929688 L 585.4000244140625 673 L 565.5999755859375 692.2000122070312 L 587.7999877929688 715 L 565 737.2000122070312 L 584.2000122070312 757 L 607 734.7999877929688 L 629.2000122070312 757.5999755859375 Z" class="st1" style="fill: rgb(88, 89, 91);" transform="matrix(1, 0, 0, 1, 0, 0)"/><path d="M 727.5 628.2999877929688 L 696 596.7999877929688 L 669.7999877929688 623.0999755859375 L 664.5 639.7000122070312 L 641.4000244140625 662.7999877929688 L 661.5999755859375 683 L 684.7000122070312 659.9000244140625 L 701.2999877929688 654.5999755859375 Z" class="st1" style="fill: rgb(88, 89, 91);" transform="matrix(1, 0, 0, 1, 0, 0)"/><path d="M 694.2999877929688 835.5 L 725.7999877929688 804 L 699.5 777.7999877929688 L 682.9000244140625 772.5 L 659.7999877929688 749.4000244140625 L 639.5999755859375 769.5999755859375 L 662.7000122070312 792.7000122070312 L 668 809.2999877929688 Z" class="st1" style="fill: rgb(88, 89, 91);" transform="matrix(1, 0, 0, 1, 0, 0)"/><path d="M 487.1000061035156 802.2999877929688 L 518.5999755859375 833.7999877929688 L 544.7999877929688 807.5 L 550.0999755859375 790.9000244140625 L 573.2000122070312 767.7999877929688 L 553 747.5999755859375 L 529.9000244140625 770.7000122070312 L 513.2999877929688 776 Z" class="st1" style="fill: rgb(88, 89, 91);" transform="matrix(1, 0, 0, 1, 0, 0)"/><path d="M 520.2999877929688 600 L 488.79998779296875 631.5 L 515.0999755859375 657.7999877929688 L 531.7000122070312 663.0999755859375 L 554.7999877929688 686.2000122070312 L 575 666 L 551.9000244140625 642.9000244140625 L 546.5999755859375 626.2999877929688 Z" class="st1" style="fill: rgb(88, 89, 91);" transform="matrix(1, 0, 0, 1, 0, 0)"/><path class="st1" d="M987.4,238.2L931,189.9c-7-6-17.4-5.3-23.6,1.5l-24.2,26.8H828c-7.9,0-14.2,6.4-14.2,14.2v153.9&#10;&#9;&#9;&#9;c0,15.6,12.6,28.2,28.2,28.2h122c15.6,0,28.2-12.6,28.2-28.2V248.6C992.2,244.6,990.4,240.8,987.4,238.2z M948.5,373l-5.3,5.3&#10;&#9;&#9;&#9;l-16.4-16.4h-57.6l-16.4,16.4l-5.3-5.3l16.4-16.4V299l-16.4-16.4l5.3-5.3l16.4,16.4h57.6l16.4-16.4l5.3,5.3L932.1,299v57.6&#10;&#9;&#9;&#9;L948.5,373z M966.4,256.9c-3.3,3.6-8.8,4-12.5,0.9l-37.3-31.1c-0.8-0.7-1.3-1.7-1.3-2.8v-10.2c0-2,1.6-3.6,3.6-3.6h9.2&#10;&#9;&#9;&#9;c0.9,0,1.8,0.4,2.5,1l35.2,33.2C969.5,247.7,969.7,253.3,966.4,256.9z" style="fill: rgb(88, 89, 91);" transform="matrix(1, 0, 0, 1, 0, 0)"/><path d="M 826.799988 185.800003 H 871.399986 V 210.100002 H 826.799988 V 185.800003 Z" class="st1" style="fill: rgb(88, 89, 91);" transform="matrix(1, 0, 0, 1, 0, 0)"/><path d="M 875.099976 304.899994 H 920.899975 V 350.699993 H 875.099976 V 304.899994 Z" class="st1" style="fill: rgb(88, 89, 91);" transform="matrix(1, 0, 0, 1, 0, 0)"/><path class="st1" d="M1322.1,251.5l-15.8-16.3c-2.5-2.6-4.2-5.8-4.8-9.3l-6.5-32.8c-3-15.3-16.4-26.3-32-26.3h-59.5H1144&#10;&#9;&#9;&#9;c-15.6,0-29,11-32,26.3l-6.5,32.8c-0.7,3.5-2.4,6.7-4.8,9.3l-15.8,16.3c-3.3,3.4-5.2,8.1-5.2,12.9v32.8c0,4.2,3.4,7.6,7.6,7.6h8.9&#10;&#9;&#9;&#9;v13.8c0,10.8,8.8,19.6,19.6,19.6c10.8,0,19.6-8.8,19.6-19.6v-15.5h68.1h68.1v15.5c0,10.8,8.8,19.6,19.6,19.6&#10;&#9;&#9;&#9;c10.8,0,19.6-8.8,19.6-19.6v-13.8h8.9c4.2,0,7.6-3.4,7.6-7.6v-32.8C1327.3,259.6,1325.5,255,1322.1,251.5z M1125.8,290.7&#10;&#9;&#9;&#9;c-8.2,0-14.9-6.7-14.9-14.9c0-8.2,6.7-14.9,14.9-14.9c8.2,0,14.9,6.7,14.9,14.9C1140.7,284.1,1134,290.7,1125.8,290.7z&#10;&#9;&#9;&#9; M1118,234.6c0,0,2.1-41.3,21.1-48.7c14.2-5.5,48.1-5.6,64.4-5.2c16.3-0.3,50.2-0.3,64.4,5.2c19,7.4,21.1,48.7,21.1,48.7&#10;&#9;&#9;&#9;c-21.8-8.3-69-9.9-85.5-10.2C1187,224.7,1139.8,226.3,1118,234.6z M1281.1,290.7c-8.2,0-14.9-6.7-14.9-14.9&#10;&#9;&#9;&#9;c0-8.2,6.7-14.9,14.9-14.9c8.2,0,14.9,6.7,14.9,14.9C1295.9,284.1,1289.3,290.7,1281.1,290.7z" style="fill: rgb(88, 89, 91);" transform="matrix(1, 0, 0, 1, 0, 0)"/><path d="M 1331.699951171875 344.79998779296875 L 1075.300048828125 344.79998779296875 L 1075.300048828125 363.3999938964844 L 1179.9000244140625 363.3999938964844 L 1179.9000244140625 433.3999938964844 L 1227 433.3999938964844 L 1227 363.3999938964844 L 1331.699951171875 363.3999938964844 Z" class="st1" style="fill: rgb(88, 89, 91);" transform="matrix(1, 0, 0, 1, 0, 0)"/><path class="st1" d="M474.8,385.2" style="fill: rgb(88, 89, 91);" transform="matrix(1, 0, 0, 1, 0, 0)"/><path class="st1" d="M684.8,219.8l-29.5,24.9L634,222.7l27.5-25.8c0,0-24.3-6-27.2-3.9c-2.9,2-22.4,18-24.1,22.5&#10;&#9;&#9;&#9;c-1.7,4.5-1.9,33.4-1.9,33.4l-82.6,82.2c0,0-28.1-0.8-31.4,0c-3.3,0.8-17.3,13.2-19.4,19c-2.1,5.8,0,35.1,0,35.1l29.3-25.2&#10;&#9;&#9;&#9;l21.5,21.9l-27.3,26c0,0,24.4,5.8,27.3,3.7c2.9-2.1,22.3-18.2,23.9-22.7c1.7-4.5,1.7-33.4,1.7-33.4l82.3-82c0,0,28.1,1.1,31.4,0.3&#10;&#9;&#9;&#9;c3.3-0.8,17.5-13.1,19.6-18.8C686.6,249.1,684.8,219.8,684.8,219.8z" style="fill: rgb(88, 89, 91);" transform="matrix(1, 0, 0, 1, 0, 0)"/><path d="M 646.2000122070312 408.70001220703125 L 676.7000122070312 376.8999938964844 L 609.9000244140625 311.1000061035156 L 581.0999755859375 339.70001220703125 Z" class="st1" style="fill: rgb(88, 89, 91);" transform="matrix(1, 0, 0, 1, 0, 0)"/><path d="M 545.5 247.6999969482422 L 519 273.70001220703125 L 543.2999877929688 299.5 L 570.5999755859375 272.3999938964844 Z" class="st1" style="fill: rgb(88, 89, 91);" transform="matrix(1, 0, 0, 1, 0, 0)"/><path class="st1" d="M441.4,247.7l41.3,40.5l87.9-84.6l-14-15.3c0,0-26.4,12.4-30.6,14c-4.1,1.7-37.6-0.8-37.6-0.8L441.4,247.7z" style="fill: rgb(88, 89, 91);" transform="matrix(1, 0, 0, 1, 0, 0)"/><path class="st1" d="M284.5,707.9l-22.3-64.4H128.5c-39.7,0-71.8,32.2-71.8,71.8c0,39.7,32.2,71.8,71.8,71.8h170.9l115.2-107.8&#10;&#9;&#9;&#9;v-14.9L284.5,707.9z M130.9,763.6c-26.7,0-48.3-21.6-48.3-48.3c0-26.7,21.6-48.3,48.3-48.3V763.6z M206.5,737.6&#10;&#9;&#9;&#9;c-26.7,0-48.3-12.2-48.3-27.3c0-15.1,21.6-27.3,48.3-27.3s48.3,12.2,48.3,27.3C254.8,725.4,233.2,737.6,206.5,737.6z" style="fill: rgb(88, 89, 91);" transform="matrix(1, 0, 0, 1, 0, 0)"/><path d="M 179.199997 701.700012 H 226.299995 V 716.600012 H 179.199997 V 701.700012 Z" class="st1" style="fill: rgb(88, 89, 91);" transform="matrix(1, 0, 0, 1, 0, 0)"/><path class="st1" d="M414.6,701.7c0,0-30.1,31.4-26,50.4c4.1,19,26,16.9,26,16.9s21.9,2.1,26-16.9&#10;&#9;&#9;&#9;C444.7,733.1,414.6,701.7,414.6,701.7z" style="fill: rgb(88, 89, 91);" transform="matrix(1, 0, 0, 1, 0, 0)"/><path class="st1" d="M315.6,360.4l-74.8-45.1l15.5-35.3c0,0,9.9-1.9,9.9-18s-6.8-19.2-6.8-19.2s0-28.5-4.3-39&#10;&#9;&#9;&#9;c-4.3-10.5-26.6-27.9-53.3-31c-26.6,3.1-48.9,20.4-53.3,31c-4.3,10.5-4.3,39-4.3,39s-6.8,3.1-6.8,19.2s9.9,18,9.9,18l15.5,35.3&#10;&#9;&#9;&#9;L88,360.4c-7.9,4.8-13.3,12.9-14.6,22l-6.6,45h135h135l-6.6-45C328.9,373.3,323.5,365.2,315.6,360.4z M201.8,195.2&#10;&#9;&#9;&#9;c14.7,0,26.6,5,26.6,11.1c0,6.2-11.9,11.1-26.6,11.1c-14.7,0-26.6-5-26.6-11.1C175.1,200.2,187.1,195.2,201.8,195.2z M158.4,275.1&#10;&#9;&#9;&#9;c-8.1-0.6-11.8-12.4-10.5-19.2c1.2-6.8-2.5-6.2,18.6-22.3c21.1-16.1,27.9-1.2,22.3,0c-16.1,1.9-32.8,16.7-29.1,21.7&#10;&#9;&#9;&#9;c3.7,5,10.5,9.9,20.4,0c5.8-5.8,15-6.5,21.7-6.1c6.6-0.4,15.9,0.3,21.7,6.1c9.9,9.9,16.7,5,20.4,0c3.7-5,11.5-13.6,11.8,0.6&#10;&#9;&#9;&#9;c0.2,6.9-2.5,18.6-10.5,19.2c0,0-12.6,48.7-43.4,51.3C171,323.8,158.4,275.1,158.4,275.1z M201.8,401.8&#10;&#9;&#9;&#9;c-12.8-18.6-33.6-49.4-40.3-63.6l13.6-11.7c0,0,11.5,7.8,26.6,10.4c15.1-2.5,26.6-10.4,26.6-10.4l13.6,11.7&#10;&#9;&#9;&#9;C235.4,352.4,214.6,383.2,201.8,401.8z" style="fill: rgb(88, 89, 91);" transform="matrix(1, 0, 0, 1, 0, 0)"/><path d="M 190.600006 201.699997 H 212.900005 V 210.399997 H 190.600006 V 201.699997 Z" class="st1" style="fill: rgb(88, 89, 91);" transform="matrix(1, 0, 0, 1, 0, 0)"/>

</svg>