<?xml version="1.0" encoding="utf-8"?>
<svg id="master-artboard" viewBox="0 0 290.0720520019531 306.9637756347656" version="1.1" xmlns="http://www.w3.org/2000/svg" x="0px" y="0px" style="enable-background:new 0 0 1400 980;" width="290.0720520019531px" height="306.9637756347656px"><rect id="ee-background" x="0" y="0" width="290.0720520019531" height="306.9637756347656" style="fill: white; fill-opacity: 0; pointer-events: none;"/>


<path class="st1" d="M1322.1,251.5l-15.8-16.3c-2.5-2.6-4.2-5.8-4.8-9.3l-6.5-32.8c-3-15.3-16.4-26.3-32-26.3h-59.5H1144&#10;&#9;&#9;&#9;c-15.6,0-29,11-32,26.3l-6.5,32.8c-0.7,3.5-2.4,6.7-4.8,9.3l-15.8,16.3c-3.3,3.4-5.2,8.1-5.2,12.9v32.8c0,4.2,3.4,7.6,7.6,7.6h8.9&#10;&#9;&#9;&#9;v13.8c0,10.8,8.8,19.6,19.6,19.6c10.8,0,19.6-8.8,19.6-19.6v-15.5h68.1h68.1v15.5c0,10.8,8.8,19.6,19.6,19.6&#10;&#9;&#9;&#9;c10.8,0,19.6-8.8,19.6-19.6v-13.8h8.9c4.2,0,7.6-3.4,7.6-7.6v-32.8C1327.3,259.6,1325.5,255,1322.1,251.5z M1125.8,290.7&#10;&#9;&#9;&#9;c-8.2,0-14.9-6.7-14.9-14.9c0-8.2,6.7-14.9,14.9-14.9c8.2,0,14.9,6.7,14.9,14.9C1140.7,284.1,1134,290.7,1125.8,290.7z&#10;&#9;&#9;&#9; M1118,234.6c0,0,2.1-41.3,21.1-48.7c14.2-5.5,48.1-5.6,64.4-5.2c16.3-0.3,50.2-0.3,64.4,5.2c19,7.4,21.1,48.7,21.1,48.7&#10;&#9;&#9;&#9;c-21.8-8.3-69-9.9-85.5-10.2C1187,224.7,1139.8,226.3,1118,234.6z M1281.1,290.7c-8.2,0-14.9-6.7-14.9-14.9&#10;&#9;&#9;&#9;c0-8.2,6.7-14.9,14.9-14.9c8.2,0,14.9,6.7,14.9,14.9C1295.9,284.1,1289.3,290.7,1281.1,290.7z" style="fill: rgb(88, 89, 91); fill-opacity: 1;" transform="matrix(1, 0, 0, 1, -1055.8984069824219, -140.66224670410156)"/><path d="M 1331.699951171875 344.79998779296875 L 1075.300048828125 344.79998779296875 L 1075.300048828125 363.3999938964844 L 1179.9000244140625 363.3999938964844 L 1179.9000244140625 433.3999938964844 L 1227 433.3999938964844 L 1227 363.3999938964844 L 1331.699951171875 363.3999938964844 Z" class="st1" style="fill: rgb(88, 89, 91); fill-opacity: 1;" transform="matrix(1, 0, 0, 1, -1055.8984069824219, -140.66224670410156)"/>

</svg>