<?xml version="1.0" encoding="utf-8"?>
<svg id="master-artboard" viewBox="0 0 375.05328369140625 358.99566650390625" version="1.1" xmlns="http://www.w3.org/2000/svg" x="0px" y="0px" style="enable-background:new 0 0 1400 980;" width="375.05328369140625px" height="358.99566650390625px"><defs><linearGradient id="gradient-0" gradientUnits="objectBoundingBox" x1="0.5" y1="0" x2="0.5" y2="1">
                <stop offset="0" style="stop-color: #ffffff"/>
                <stop offset="1" style="stop-color: #cccccc"/>
              </linearGradient></defs><rect id="ee-background" x="0" y="0" width="375.05328369140625" height="358.99566650390625" style="fill: rgb(255, 255, 255); fill-opacity: 0; pointer-events: none;"/>


<path class="st1" d="M284.5,707.9l-22.3-64.4H128.5c-39.7,0-71.8,32.2-71.8,71.8c0,39.7,32.2,71.8,71.8,71.8h170.9l115.2-107.8&#10;&#9;&#9;&#9;v-14.9L284.5,707.9z M130.9,763.6c-26.7,0-48.3-21.6-48.3-48.3c0-26.7,21.6-48.3,48.3-48.3V763.6z M206.5,737.6&#10;&#9;&#9;&#9;c-26.7,0-48.3-12.2-48.3-27.3c0-15.1,21.6-27.3,48.3-27.3s48.3,12.2,48.3,27.3C254.8,725.4,233.2,737.6,206.5,737.6z" style="fill: rgb(88, 89, 91); fill-opacity: 1;" transform="matrix(0.9416038393974304, 0, 0, 1.0306408405303955, -47.91877555847168, -573.840015411377)"/><path d="M 179.199997 701.700012 H 226.299995 V 716.600012 H 179.199997 V 701.700012 Z" class="st1" style="fill: rgb(88, 89, 91); fill-opacity: 1;" transform="matrix(1, 0, 0, 1, -57.26332473754883, -548.8428535461426)"/><path class="st1" d="M414.6,701.7c0,0-30.1,31.4-26,50.4c4.1,19,26,16.9,26,16.9s21.9,2.1,26-16.9&#10;&#9;&#9;&#9;C444.7,733.1,414.6,701.7,414.6,701.7z" style="fill: rgb(88, 89, 91); fill-opacity: 1;" transform="matrix(1, 0, 0, 1, -71.699462890625, -553.6548957824707)"/>

</svg>