<?xml version="1.0" encoding="utf-8"?>
<svg id="master-artboard" viewBox="0 0 290.0720520019531 306.9637756347656" version="1.1" xmlns="http://www.w3.org/2000/svg" x="0px" y="0px" style="enable-background:new 0 0 1400 980;" width="290.0720520019531px" height="306.9637756347656px"><rect id="ee-background" x="0" y="0" width="290.0720520019531" height="306.9637756347656" style="fill: white; fill-opacity: 0; pointer-events: none;"/>


<path class="st1" d="M474.8,385.2" style="fill: rgb(88, 89, 91);" transform="matrix(1, 0, 0, 1, -438.7545166015625, -149.9776153564453)"/><path class="st1" d="M684.8,219.8l-29.5,24.9L634,222.7l27.5-25.8c0,0-24.3-6-27.2-3.9c-2.9,2-22.4,18-24.1,22.5&#10;&#9;&#9;&#9;c-1.7,4.5-1.9,33.4-1.9,33.4l-82.6,82.2c0,0-28.1-0.8-31.4,0c-3.3,0.8-17.3,13.2-19.4,19c-2.1,5.8,0,35.1,0,35.1l29.3-25.2&#10;&#9;&#9;&#9;l21.5,21.9l-27.3,26c0,0,24.4,5.8,27.3,3.7c2.9-2.1,22.3-18.2,23.9-22.7c1.7-4.5,1.7-33.4,1.7-33.4l82.3-82c0,0,28.1,1.1,31.4,0.3&#10;&#9;&#9;&#9;c3.3-0.8,17.5-13.1,19.6-18.8C686.6,249.1,684.8,219.8,684.8,219.8z" style="fill: rgb(88, 89, 91);" transform="matrix(1, 0, 0, 1, -424.7813720703125, -140.6622314453125)"/><path d="M 646.2000122070312 408.70001220703125 L 676.7000122070312 376.8999938964844 L 609.9000244140625 311.1000061035156 L 581.0999755859375 339.70001220703125 Z" class="st1" style="fill: rgb(88, 89, 91);" transform="matrix(1, 0, 0, 1, -424.7813720703125, -140.6622314453125)"/><path d="M 545.5 247.6999969482422 L 519 273.70001220703125 L 543.2999877929688 299.5 L 570.5999755859375 272.3999938964844 Z" class="st1" style="fill: rgb(88, 89, 91);" transform="matrix(1, 0, 0, 1, -424.7813720703125, -140.6622314453125)"/><path class="st1" d="M441.4,247.7l41.3,40.5l87.9-84.6l-14-15.3c0,0-26.4,12.4-30.6,14c-4.1,1.7-37.6-0.8-37.6-0.8L441.4,247.7z" style="fill: rgb(88, 89, 91);" transform="matrix(1, 0, 0, 1, -424.7813720703125, -140.6622314453125)"/>

</svg>