<?xml version="1.0" encoding="utf-8"?>
<svg id="master-artboard" viewBox="0 0 343.7749328613281 356.58966064453125" version="1.1" xmlns="http://www.w3.org/2000/svg" x="0px" y="0px" style="enable-background:new 0 0 1400 980;" width="343.7749328613281px" height="356.58966064453125px"><defs><linearGradient id="gradient-0" gradientUnits="objectBoundingBox" x1="0.5" y1="0" x2="0.5" y2="1">
                <stop offset="0" style="stop-color: #ffffff"/>
                <stop offset="1" style="stop-color: #cccccc"/>
              </linearGradient></defs><rect id="ee-background" x="0" y="0" width="343.7749328613281" height="356.58966064453125" style="fill: rgb(255, 255, 255); fill-opacity: 0; pointer-events: none;"/>


<path class="st1" d="M315.6,360.4l-74.8-45.1l15.5-35.3c0,0,9.9-1.9,9.9-18s-6.8-19.2-6.8-19.2s0-28.5-4.3-39&#10;&#9;&#9;&#9;c-4.3-10.5-26.6-27.9-53.3-31c-26.6,3.1-48.9,20.4-53.3,31c-4.3,10.5-4.3,39-4.3,39s-6.8,3.1-6.8,19.2s9.9,18,9.9,18l15.5,35.3&#10;&#9;&#9;&#9;L88,360.4c-7.9,4.8-13.3,12.9-14.6,22l-6.6,45h135h135l-6.6-45C328.9,373.3,323.5,365.2,315.6,360.4z M201.8,195.2&#10;&#9;&#9;&#9;c14.7,0,26.6,5,26.6,11.1c0,6.2-11.9,11.1-26.6,11.1c-14.7,0-26.6-5-26.6-11.1C175.1,200.2,187.1,195.2,201.8,195.2z M158.4,275.1&#10;&#9;&#9;&#9;c-8.1-0.6-11.8-12.4-10.5-19.2c1.2-6.8-2.5-6.2,18.6-22.3c21.1-16.1,27.9-1.2,22.3,0c-16.1,1.9-32.8,16.7-29.1,21.7&#10;&#9;&#9;&#9;c3.7,5,10.5,9.9,20.4,0c5.8-5.8,15-6.5,21.7-6.1c6.6-0.4,15.9,0.3,21.7,6.1c9.9,9.9,16.7,5,20.4,0c3.7-5,11.5-13.6,11.8,0.6&#10;&#9;&#9;&#9;c0.2,6.9-2.5,18.6-10.5,19.2c0,0-12.6,48.7-43.4,51.3C171,323.8,158.4,275.1,158.4,275.1z M201.8,401.8&#10;&#9;&#9;&#9;c-12.8-18.6-33.6-49.4-40.3-63.6l13.6-11.7c0,0,11.5,7.8,26.6,10.4c15.1-2.5,26.6-10.4,26.6-10.4l13.6,11.7&#10;&#9;&#9;&#9;C235.4,352.4,214.6,383.2,201.8,401.8z" style="fill: rgb(88, 89, 91); fill-opacity: 1;" transform="matrix(1, 0, 0, 1, -33.203107833862305, -122.97674560546875)"/><path d="M 190.600006 201.699997 H 212.900005 V 210.399997 H 190.600006 V 201.699997 Z" class="st1" style="fill: rgb(88, 89, 91); fill-opacity: 1;" transform="matrix(1, 0, 0, 1, -33.203107833862305, -122.97674560546875)"/>

</svg>