<?xml version="1.0" encoding="utf-8"?>
<svg id="master-artboard" viewBox="0 0 308.7029113769531 288.33294677734375" version="1.1" xmlns="http://www.w3.org/2000/svg" x="0px" y="0px" style="enable-background:new 0 0 1400 980;" width="308.7029113769531px" height="288.33294677734375px"><rect id="ee-background" x="0" y="0" width="308.7029113769531" height="288.33294677734375" style="fill: white; fill-opacity: 0; pointer-events: none;"/>

<path d="M -23.4 -11 H 1418.6 V 993 H -23.4 V -11 Z" class="st0" style="fill: rgb(241, 242, 242);" transform="matrix(0.000037648117711570935, 0.000008269736438295713, 0.000008269736438295713, -0.000037648117711570935, 301.04939831338226, 103.05303269861942)"/>
<g transform="matrix(0.006441745894467669, 0, 0, 0.006441745894467669, 292.89190939429585, 107.282527658231)">
		<path d="M 1157.5 707.7999877929688 L 1239.199951171875 789.5 L 1277.5999755859375 749.9000244140625 L 1196.5 668.7000122070312 Z" class="st1" style="fill: rgb(88, 89, 91); fill-opacity: 0;"/>
		<path class="st1" d="M1131.5,762.3l40.6,45.2l-1.3,1.3c-3.6,3.8-9.6,4-13.5,0.6l-14-12c-3.2-2.7-7.9-2.5-10.8,0.4&#10;&#9;&#9;&#9;c-3.2,3.2-3.1,8.5,0.3,11.5l21.7,19.4c4.6,4.1,11.5,4.1,16,0l47.1-42.4l-55.1-52.6L1131.5,762.3z" style="fill: rgb(88, 89, 91); fill-opacity: 0;"/>
		<path d="M 1348.9000244140625 617.2999877929688 L 1330.9000244140625 598.7999877929688 L 1305 619.2000122070312 L 1294 607.4000244140625 L 1216.199951171875 665.9000244140625 L 1225.0999755859375 677.7999877929688 L 1292.199951171875 627.2999877929688 L 1321.0999755859375 658.5999755859375 L 1271.800048828125 721.0999755859375 L 1283.5 730.2999877929688 L 1340.699951171875 657.7999877929688 L 1328 644.2000122070312 Z" class="st1" style="fill: rgb(88, 89, 91); fill-opacity: 0;"/>
	</g><path class="st1" d="M1050.1,748.8l-15.8-16.3c-2.5-2.6-4.2-5.8-4.8-9.3l-6.5-32.8c-3-15.3-16.4-26.3-32-26.3h-59.5h-59.5&#10;&#9;&#9;&#9;c-15.6,0-29,11-32,26.3l-6.5,32.8c-0.7,3.5-2.4,6.7-4.8,9.3l-15.8,16.3c-3.3,3.4-5.2,8.1-5.2,12.9v32.8c0,4.2,3.4,7.6,7.6,7.6h8.9&#10;&#9;&#9;&#9;v13.8c0,10.8,8.8,19.6,19.6,19.6c10.8,0,19.6-8.8,19.6-19.6v-15.5h68.1h68.1v15.5c0,10.8,8.8,19.6,19.6,19.6&#10;&#9;&#9;&#9;c10.8,0,19.6-8.8,19.6-19.6v-13.8h8.9c4.2,0,7.6-3.4,7.6-7.6v-32.8C1055.3,756.9,1053.4,752.3,1050.1,748.8z M853.8,788&#10;&#9;&#9;&#9;c-8.2,0-14.9-6.7-14.9-14.9c0-8.2,6.7-14.9,14.9-14.9c8.2,0,14.9,6.7,14.9,14.9C868.7,781.4,862,788,853.8,788z M845.9,731.9&#10;&#9;&#9;&#9;c0,0,2.1-41.3,21.1-48.7c14.2-5.5,48.1-5.6,64.4-5.2c16.3-0.3,50.2-0.3,64.4,5.2c19,7.4,21.1,48.7,21.1,48.7&#10;&#9;&#9;&#9;c-21.8-8.3-69-9.9-85.5-10.2C915,722,867.7,723.6,845.9,731.9z M1009,788c-8.2,0-14.9-6.7-14.9-14.9c0-8.2,6.7-14.9,14.9-14.9&#10;&#9;&#9;&#9;c8.2,0,14.9,6.7,14.9,14.9C1023.9,781.4,1017.2,788,1009,788z" style="fill: rgb(88, 89, 91); fill-opacity: 0;" transform="matrix(0.000019779291614692976, 0, 0, 0.000019779291614692976, 301.1808507032057, 103.01356655999948)"/><path class="st1" d="M938.8,601.7c-1.2-10.5-10-17-10-17s-8.8,6.5-10,17c-1.2,10.5,5.4,12.1,10,12.1&#10;&#9;&#9;&#9;C933.4,613.8,940,612.3,938.8,601.7z" style="fill: rgb(88, 89, 91); fill-opacity: 0;" transform="matrix(0.0005601845529573821, 0, 0, 0.0005601845529573821, 300.7443646442068, 102.5620588031083)"/><path class="st1" d="M986.1,601.5c-4.7-9.5-15.2-12.7-15.2-12.7s-6.1,9.1-3.7,19.4s9.1,9.6,13.5,8&#10;&#9;&#9;&#9;C985.1,614.6,990.8,611,986.1,601.5z" style="fill: rgb(88, 89, 91); fill-opacity: 0;" transform="matrix(0.0005601845529573821, 0, 0, 0.0005601845529573821, 300.7443646442068, 102.5620588031083)"/><path class="st1" d="M1000.5,638.1c-4.7-9.5-15.2-12.7-15.2-12.7s-6.1,9.1-3.7,19.4c2.4,10.3,9.1,9.6,13.5,8&#10;&#9;&#9;&#9;C999.5,651.3,1005.2,647.6,1000.5,638.1z" style="fill: rgb(88, 89, 91); fill-opacity: 0;" transform="matrix(0.0005601845529573821, 0, 0, 0.0005601845529573821, 300.7443646442068, 102.5620588031083)"/><path class="st1" d="M873.8,601.5c4.7-9.5,15.2-12.7,15.2-12.7s6.1,9.1,3.7,19.4c-2.4,10.3-9.1,9.6-13.5,8&#10;&#9;&#9;&#9;C874.8,614.6,869.1,611,873.8,601.5z" style="fill: rgb(88, 89, 91); fill-opacity: 0;" transform="matrix(0.0005601845529573821, 0, 0, 0.0005601845529573821, 300.7443646442068, 102.5620588031083)"/><path class="st1" d="M859.4,638.1c4.7-9.5,15.2-12.7,15.2-12.7s6.1,9.1,3.7,19.4c-2.4,10.3-9.1,9.6-13.5,8&#10;&#9;&#9;&#9;C860.4,651.3,854.7,647.6,859.4,638.1z" style="fill: rgb(88, 89, 91); fill-opacity: 0;" transform="matrix(0.0005601845529573821, 0, 0, 0.0005601845529573821, 300.7443646442068, 102.5620588031083)"/><path class="st1" d="M938.8,639.4c-1.2-10.5-10-17-10-17s-8.8,6.5-10,17c-1.2,10.5,5.4,12.1,10,12.1&#10;&#9;&#9;&#9;C933.4,651.5,940,649.9,938.8,639.4z" style="fill: rgb(88, 89, 91); fill-opacity: 0;" transform="matrix(0.0005601845529573821, 0, 0, 0.0005601845529573821, 300.7443646442068, 102.5620588031083)"/><path d="M 649 738.4000244140625 L 626.7999877929688 715.5999755859375 L 649.5999755859375 693.4000244140625 L 630.4000244140625 673.5999755859375 L 607.5999755859375 695.7999877929688 L 585.4000244140625 673 L 565.5999755859375 692.2000122070312 L 587.7999877929688 715 L 565 737.2000122070312 L 584.2000122070312 757 L 607 734.7999877929688 L 629.2000122070312 757.5999755859375 Z" class="st1" style="fill: rgb(88, 89, 91); fill-opacity: 0;" transform="matrix(0.0005601845529573821, 0, 0, 0.0005601845529573821, 301.1670504297796, 102.31288365480091)"/><path d="M 727.5 628.2999877929688 L 696 596.7999877929688 L 669.7999877929688 623.0999755859375 L 664.5 639.7000122070312 L 641.4000244140625 662.7999877929688 L 661.5999755859375 683 L 684.7000122070312 659.9000244140625 L 701.2999877929688 654.5999755859375 Z" class="st1" style="fill: rgb(88, 89, 91); fill-opacity: 0;" transform="matrix(0.0005601845529573821, 0, 0, 0.0005601845529573821, 301.1670504297796, 102.31288365480091)"/><path d="M 694.2999877929688 835.5 L 725.7999877929688 804 L 699.5 777.7999877929688 L 682.9000244140625 772.5 L 659.7999877929688 749.4000244140625 L 639.5999755859375 769.5999755859375 L 662.7000122070312 792.7000122070312 L 668 809.2999877929688 Z" class="st1" style="fill: rgb(88, 89, 91); fill-opacity: 0;" transform="matrix(-0.017784223180607444, 0, 0, -0.017784223180607444, 310.1026101167519, 116.02716258984219)"/><path d="M 487.1000061035156 802.2999877929688 L 518.5999755859375 833.7999877929688 L 544.7999877929688 807.5 L 550.0999755859375 790.9000244140625 L 573.2000122070312 767.7999877929688 L 553 747.5999755859375 L 529.9000244140625 770.7000122070312 L 513.2999877929688 776 Z" class="st1" style="fill: rgb(88, 89, 91); fill-opacity: 0;" transform="matrix(-0.014472120929729177, 0, 0, -0.014472120929729177, 311.81431986981465, 89.80130360483622)"/><path d="M 520.2999877929688 600 L 488.79998779296875 631.5 L 515.0999755859375 657.7999877929688 L 531.7000122070312 663.0999755859375 L 554.7999877929688 686.2000122070312 L 575 666 L 551.9000244140625 642.9000244140625 L 546.5999755859375 626.2999877929688 Z" class="st1" style="fill: rgb(88, 89, 91); fill-opacity: 0;" transform="matrix(0.0005601845529573821, 0, 0, 0.0005601845529573821, 301.1670504297796, 102.31288365480091)"/><path class="st1" d="M284.5,707.9l-22.3-64.4H128.5c-39.7,0-71.8,32.2-71.8,71.8c0,39.7,32.2,71.8,71.8,71.8h170.9l115.2-107.8&#10;&#9;&#9;&#9;v-14.9L284.5,707.9z M130.9,763.6c-26.7,0-48.3-21.6-48.3-48.3c0-26.7,21.6-48.3,48.3-48.3V763.6z M206.5,737.6&#10;&#9;&#9;&#9;c-26.7,0-48.3-12.2-48.3-27.3c0-15.1,21.6-27.3,48.3-27.3s48.3,12.2,48.3,27.3C254.8,725.4,233.2,737.6,206.5,737.6z" style="fill: rgb(88, 89, 91); fill-opacity: 0;" transform="matrix(0.000005099539777097397, 0, 0, 0.000005099539777097397, 301.367441520371, 102.68834406611656)"/><path d="M 179.199997 701.700012 H 226.299995 V 716.600012 H 179.199997 V 701.700012 Z" class="st1" style="fill: rgb(88, 89, 91); fill-opacity: 0;" transform="matrix(0.000005099539777097397, 0, 0, 0.000005099539777097397, 301.36746544753026, 102.6883577387787)"/><path class="st1" d="M414.6,701.7c0,0-30.1,31.4-26,50.4c4.1,19,26,16.9,26,16.9s21.9,2.1,26-16.9&#10;&#9;&#9;&#9;C444.7,733.1,414.6,701.7,414.6,701.7z" style="fill: rgb(88, 89, 91); fill-opacity: 0;" transform="matrix(0.000005099539777097397, 0, 0, 0.000005099539777097397, 301.36747798080324, 102.68826203014507)"/><path class="st1" d="M315.6,360.4l-74.8-45.1l15.5-35.3c0,0,9.9-1.9,9.9-18s-6.8-19.2-6.8-19.2s0-28.5-4.3-39&#10;&#9;&#9;&#9;c-4.3-10.5-26.6-27.9-53.3-31c-26.6,3.1-48.9,20.4-53.3,31c-4.3,10.5-4.3,39-4.3,39s-6.8,3.1-6.8,19.2s9.9,18,9.9,18l15.5,35.3&#10;&#9;&#9;&#9;L88,360.4c-7.9,4.8-13.3,12.9-14.6,22l-6.6,45h135h135l-6.6-45C328.9,373.3,323.5,365.2,315.6,360.4z M201.8,195.2&#10;&#9;&#9;&#9;c14.7,0,26.6,5,26.6,11.1c0,6.2-11.9,11.1-26.6,11.1c-14.7,0-26.6-5-26.6-11.1C175.1,200.2,187.1,195.2,201.8,195.2z M158.4,275.1&#10;&#9;&#9;&#9;c-8.1-0.6-11.8-12.4-10.5-19.2c1.2-6.8-2.5-6.2,18.6-22.3c21.1-16.1,27.9-1.2,22.3,0c-16.1,1.9-32.8,16.7-29.1,21.7&#10;&#9;&#9;&#9;c3.7,5,10.5,9.9,20.4,0c5.8-5.8,15-6.5,21.7-6.1c6.6-0.4,15.9,0.3,21.7,6.1c9.9,9.9,16.7,5,20.4,0c3.7-5,11.5-13.6,11.8,0.6&#10;&#9;&#9;&#9;c0.2,6.9-2.5,18.6-10.5,19.2c0,0-12.6,48.7-43.4,51.3C171,323.8,158.4,275.1,158.4,275.1z M201.8,401.8&#10;&#9;&#9;&#9;c-12.8-18.6-33.6-49.4-40.3-63.6l13.6-11.7c0,0,11.5,7.8,26.6,10.4c15.1-2.5,26.6-10.4,26.6-10.4l13.6,11.7&#10;&#9;&#9;&#9;C235.4,352.4,214.6,383.2,201.8,401.8z" style="fill: rgb(88, 89, 91);" transform="matrix(1, 0, 0, 1, -49.83723068237305, -159.29299926757812)"/><path d="M 190.600006 201.699997 H 212.900005 V 210.399997 H 190.600006 V 201.699997 Z" class="st1" style="fill: rgb(88, 89, 91);" transform="matrix(1, 0, 0, 1, -49.83723068237305, -159.29299926757812)"/>
<g transform="matrix(0.000005099560965905469, 0, 0, 0.000005099560965905469, 301.3643947955412, 102.68787008050359)">
		<g>
			<g>
				<path class="st1" d="M732.3,937.7c0.8,0,1.6,0.7,1.6,0.7L720,968.2c-1.5,0-5.2,0.2-6.1,0.2c-0.8,0-1.6-0.7-1.6-0.7l-4.8-29.8&#10;&#9;&#9;&#9;&#9;&#9;c2.9,0,6.5-0.2,7.6-0.2c0.8,0,1.6,0.7,1.6,0.7l1.5,14.6c0.1,1.3,0.1,3,0.1,4.8c0.5-2,1-3.9,1.5-5.2l5.8-14.7&#10;&#9;&#9;&#9;&#9;&#9;C728.1,937.9,731.3,937.7,732.3,937.7L732.3,937.7z" style="fill: rgb(88, 89, 91); fill-opacity: 0;"/>
			</g>
			<g>
				<path class="st1" d="M746.6,952.4c0,3.2-1.8,5.4-6.3,6.3l-4.7,1c0.4,2,1.6,3,3.8,3c2.6,0,4.4-2,4.4-2s1.3,0.7,1.3,2.3&#10;&#9;&#9;&#9;&#9;&#9;c0,2.7-4.1,5.6-9,5.6c-4.9,0-8.1-3.1-8.1-8.3c0-6,4.3-14.2,11.9-14.2C744,946.1,746.6,948.6,746.6,952.4L746.6,952.4z&#10;&#9;&#9;&#9;&#9;&#9; M738.6,955.5c1-0.3,1.3-1.2,1.3-2.1c0-0.9-0.3-2.2-1.3-2.2c-1.9,0-2.7,3-3,5.3L738.6,955.5z" style="fill: rgb(88, 89, 91); fill-opacity: 0;"/>
			</g>
			<g>
				<path class="st1" d="M759.4,946.1c3.8,0,6.7,2,6.7,4.7c0,3.3-4,4.5-4,4.5s-1.2-3.6-3.9-3.6c-1.8,0-2.9,1.8-2.9,5.8&#10;&#9;&#9;&#9;&#9;&#9;c0,3.6,1,5.2,3.3,5.2c2.4,0,3.9-1.6,3.9-1.6s1.3,0.7,1.3,2.2c0,2.6-4,5.3-8.6,5.3c-4.9,0-8-3.1-8-8.2&#10;&#9;&#9;&#9;&#9;&#9;C747.3,954.3,751.7,946.1,759.4,946.1L759.4,946.1z" style="fill: rgb(88, 89, 91); fill-opacity: 0;"/>
			</g>
			<g>
				<path class="st1" d="M777.8,941.3c0.9,0,1.5,0.7,1.5,0.7l-0.7,4.5h4.8l-1.1,3.5c-0.4,1.1-0.9,1.7-2,1.7h-2.5l-1.4,8.9&#10;&#9;&#9;&#9;&#9;&#9;c-0.2,1.4,0.1,2.1,1.1,2.1c0.9,0,1.8-0.5,1.8-0.5s1.3,0.7,1.3,2.2c0,2.2-3.1,4.3-7,4.3c-4.1,0-5.8-2.5-5.1-7l1.6-9.9h-2.6&#10;&#9;&#9;&#9;&#9;&#9;l1.1-3.6c0.3-0.9,1.1-1.6,2-1.6h1.3l1.5-4.2C775.2,941.9,777,941.3,777.8,941.3L777.8,941.3z" style="fill: rgb(88, 89, 91); fill-opacity: 0;"/>
			</g>
			<g>
				<path class="st1" d="M801.2,952.4c0,3.2-1.8,5.4-6.3,6.3l-4.7,1c0.4,2,1.6,3,3.8,3c2.6,0,4.4-2,4.4-2s1.3,0.7,1.3,2.3&#10;&#9;&#9;&#9;&#9;&#9;c0,2.7-4.1,5.6-9,5.6c-4.9,0-8.1-3.1-8.1-8.3c0-6,4.3-14.2,11.9-14.2C798.6,946.1,801.2,948.6,801.2,952.4L801.2,952.4z&#10;&#9;&#9;&#9;&#9;&#9; M793.2,955.5c1-0.3,1.3-1.2,1.3-2.1c0-0.9-0.3-2.2-1.3-2.2c-1.9,0-2.7,3-3,5.3L793.2,955.5z" style="fill: rgb(88, 89, 91); fill-opacity: 0;"/>
			</g>
			<g>
				<path class="st1" d="M820.5,952.4c0,3.2-1.8,5.4-6.3,6.3l-4.7,1c0.4,2,1.6,3,3.8,3c2.6,0,4.4-2,4.4-2s1.3,0.7,1.3,2.3&#10;&#9;&#9;&#9;&#9;&#9;c0,2.7-4.1,5.6-9,5.6c-4.9,0-8.1-3.1-8.1-8.3c0-6,4.3-14.2,11.9-14.2C817.9,946.1,820.5,948.6,820.5,952.4L820.5,952.4z&#10;&#9;&#9;&#9;&#9;&#9; M812.5,955.5c1-0.3,1.3-1.2,1.3-2.1c0-0.9-0.3-2.2-1.3-2.2c-1.9,0-2.7,3-3,5.3L812.5,955.5z" style="fill: rgb(88, 89, 91); fill-opacity: 0;"/>
			</g>
			<g>
				<path class="st1" d="M836.3,960.5c0,0,1.6,1.5,1.6,4c0,3.3-2.8,4.2-5.2,4.2c-3.1,0-5.3-1.5-7.6-2.3c-0.6,0.7-1.3,1.5-1.9,2.3&#10;&#9;&#9;&#9;&#9;&#9;c0,0-3.5-0.1-3.5-2.4c0-2.9,4.8-7.8,9.9-13.4c-0.6-0.1-1.2-0.2-1.7-0.2c-2.9,0-4.1,1.5-4.1,1.5s-1.5-1.7-1.4-4&#10;&#9;&#9;&#9;&#9;&#9;c0.2-3.1,3.1-4,5.5-4c2.5,0,4.3,1,6.1,1.7l1.5-1.7c0,0,3.5,0.1,3.5,2.5c0,2.8-4.6,7.6-9.6,13c1.1,0.3,2,0.5,3,0.5&#10;&#9;&#9;&#9;&#9;&#9;C835.1,962.2,836.3,960.5,836.3,960.5L836.3,960.5z" style="fill: rgb(88, 89, 91); fill-opacity: 0;"/>
			</g>
			<g>
				<path class="st1" d="M858.7,966.7c-1.2,7.6-6.4,11.4-13,11.4c-4.2,0-7.3-2.2-7.3-4.8c0-1.7,1.4-2.5,1.4-2.5s1.4,1.3,4.2,1.3&#10;&#9;&#9;&#9;&#9;&#9;c2.6,0,6.2-1.1,6.8-5.1l0.5-3.1c-1.8,2.6-4.1,4.6-7.1,4.6c-3.3,0-4.8-2.7-3.9-8.3l0.9-6c0.6-3.7,0.7-6.7,0.7-6.7&#10;&#9;&#9;&#9;&#9;&#9;c2.4-0.4,5.5-1.5,6.6-1.5c0.8,0,1.6,0.7,1.6,0.7l-1.2,7.5l-1.1,6.9c-0.1,0.6,0,1,0.6,1c2.8,0,4.3-7.9,4.3-7.9&#10;&#9;&#9;&#9;&#9;&#9;c0.6-3.7,0.7-6.7,0.7-6.7c2.4-0.4,5.5-1.5,6.6-1.5c0.9,0,1.6,0.7,1.6,0.7l-1.2,7.5L858.7,966.7z" style="fill: rgb(88, 89, 91); fill-opacity: 0;"/>
			</g>
		</g>
		<g>
			<path class="st1" d="M538.1,947.4h7.4c1.7,0,3,0.1,3.8,0.4c1.2,0.3,2.2,1,3,1.9c0.8,0.9,1.5,2,1.9,3.3c0.4,1.3,0.7,2.9,0.7,4.8&#10;&#9;&#9;&#9;&#9;c0,1.7-0.2,3.1-0.6,4.3c-0.5,1.5-1.2,2.7-2.2,3.6c-0.7,0.7-1.7,1.2-2.9,1.6c-0.9,0.3-2.1,0.4-3.6,0.4h-7.7V947.4z M542.2,950.8&#10;&#9;&#9;&#9;&#9;v13.4h3c1.1,0,2-0.1,2.5-0.2c0.7-0.2,1.2-0.4,1.6-0.8c0.4-0.4,0.8-1,1.1-1.9c0.3-0.9,0.4-2.1,0.4-3.7c0-1.6-0.1-2.8-0.4-3.6&#10;&#9;&#9;&#9;&#9;s-0.7-1.5-1.2-2s-1.1-0.8-1.9-0.9c-0.6-0.1-1.7-0.2-3.3-0.2H542.2z" style="fill: rgb(88, 89, 91); fill-opacity: 0;"/>
			<path class="st1" d="M566.4,962.9l3.9,0.6c-0.5,1.4-1.3,2.5-2.3,3.2c-1.1,0.7-2.4,1.1-4,1.1c-2.5,0-4.4-0.8-5.6-2.5&#10;&#9;&#9;&#9;&#9;c-1-1.3-1.4-3-1.4-5c0-2.4,0.6-4.3,1.9-5.7c1.3-1.4,2.9-2.1,4.8-2.1c2.2,0,3.9,0.7,5.1,2.2c1.3,1.4,1.9,3.6,1.8,6.6h-9.7&#10;&#9;&#9;&#9;&#9;c0,1.1,0.3,2,0.9,2.7c0.6,0.6,1.3,1,2.2,1c0.6,0,1.1-0.2,1.5-0.5C565.8,964.1,566.2,963.6,566.4,962.9z M566.6,959&#10;&#9;&#9;&#9;&#9;c0-1.1-0.3-2-0.9-2.6c-0.6-0.6-1.2-0.9-2-0.9c-0.8,0-1.5,0.3-2.1,0.9c-0.6,0.6-0.8,1.4-0.8,2.5H566.6z" style="fill: rgb(88, 89, 91); fill-opacity: 0;"/>
			<path class="st1" d="M571.6,963.4l3.9-0.6c0.2,0.8,0.5,1.3,1,1.7c0.5,0.4,1.2,0.6,2.1,0.6c1,0,1.8-0.2,2.3-0.6&#10;&#9;&#9;&#9;&#9;c0.3-0.3,0.5-0.6,0.5-1c0-0.3-0.1-0.5-0.3-0.7c-0.2-0.2-0.6-0.4-1.3-0.5c-3.1-0.7-5.1-1.3-5.9-1.9c-1.2-0.8-1.7-1.9-1.7-3.3&#10;&#9;&#9;&#9;&#9;c0-1.3,0.5-2.3,1.5-3.2c1-0.9,2.6-1.3,4.7-1.3c2,0,3.5,0.3,4.5,1c1,0.7,1.6,1.6,2,2.9l-3.6,0.7c-0.2-0.6-0.5-1-0.9-1.3&#10;&#9;&#9;&#9;&#9;c-0.4-0.3-1.1-0.5-1.9-0.5c-1,0-1.7,0.1-2.2,0.4c-0.3,0.2-0.4,0.5-0.4,0.8c0,0.3,0.1,0.5,0.4,0.7c0.3,0.3,1.6,0.6,3.6,1.1&#10;&#9;&#9;&#9;&#9;c2.1,0.5,3.5,1,4.3,1.7c0.8,0.7,1.2,1.6,1.2,2.9c0,1.3-0.6,2.5-1.7,3.5c-1.1,1-2.8,1.4-5,1.4c-2,0-3.6-0.4-4.7-1.2&#10;&#9;&#9;&#9;&#9;C572.8,965.8,572,964.7,571.6,963.4z" style="fill: rgb(88, 89, 91); fill-opacity: 0;"/>
			<path class="st1" d="M588.1,950.9v-3.6h3.9v3.6H588.1z M588.1,967.5v-14.6h3.9v14.6H588.1z" style="fill: rgb(88, 89, 91); fill-opacity: 0;"/>
			<path class="st1" d="M595,968.5l4.4,0.5c0.1,0.5,0.2,0.9,0.5,1.1c0.4,0.3,0.9,0.4,1.7,0.4c1,0,1.8-0.2,2.3-0.5&#10;&#9;&#9;&#9;&#9;c0.3-0.2,0.6-0.5,0.8-1c0.1-0.3,0.2-0.9,0.2-1.8v-2.1c-1.2,1.6-2.6,2.4-4.4,2.4c-2,0-3.5-0.8-4.7-2.5c-0.9-1.3-1.3-2.9-1.3-4.9&#10;&#9;&#9;&#9;&#9;c0-2.4,0.6-4.3,1.8-5.6c1.2-1.3,2.6-1.9,4.4-1.9c1.8,0,3.3,0.8,4.5,2.4v-2.1h3.6V966c0,1.7-0.1,3-0.4,3.9c-0.3,0.9-0.7,1.5-1.2,2&#10;&#9;&#9;&#9;&#9;c-0.5,0.5-1.2,0.9-2.1,1.1c-0.9,0.3-1.9,0.4-3.3,0.4c-2.5,0-4.2-0.4-5.3-1.3c-1-0.8-1.6-1.9-1.6-3.2&#10;&#9;&#9;&#9;&#9;C595,968.8,595,968.7,595,968.5z M598.5,959.9c0,1.6,0.3,2.7,0.9,3.4c0.6,0.7,1.3,1.1,2.2,1.1c0.9,0,1.7-0.4,2.4-1.1&#10;&#9;&#9;&#9;&#9;c0.7-0.7,1-1.8,1-3.3c0-1.5-0.3-2.6-0.9-3.4c-0.6-0.7-1.4-1.1-2.4-1.1c-0.9,0-1.7,0.4-2.3,1.1&#10;&#9;&#9;&#9;&#9;C598.8,957.3,598.5,958.4,598.5,959.9z" style="fill: rgb(88, 89, 91); fill-opacity: 0;"/>
			<path class="st1" d="M625.3,967.5h-3.9v-7.5c0-1.6-0.1-2.6-0.2-3.1c-0.2-0.5-0.4-0.8-0.8-1.1c-0.4-0.3-0.8-0.4-1.3-0.4&#10;&#9;&#9;&#9;&#9;c-0.7,0-1.3,0.2-1.8,0.6c-0.5,0.4-0.9,0.9-1.1,1.5c-0.2,0.6-0.3,1.7-0.3,3.4v6.6H612v-14.6h3.6v2.1c1.3-1.7,2.9-2.5,4.8-2.5&#10;&#9;&#9;&#9;&#9;c0.9,0,1.6,0.2,2.3,0.5c0.7,0.3,1.2,0.7,1.6,1.2c0.4,0.5,0.6,1,0.8,1.6c0.1,0.6,0.2,1.5,0.2,2.6V967.5z" style="fill: rgb(88, 89, 91); fill-opacity: 0;"/>
			<path class="st1" d="M637.2,962.9l3.9,0.6c-0.5,1.4-1.3,2.5-2.3,3.2c-1.1,0.7-2.4,1.1-4,1.1c-2.5,0-4.4-0.8-5.6-2.5&#10;&#9;&#9;&#9;&#9;c-1-1.3-1.4-3-1.4-5c0-2.4,0.6-4.3,1.9-5.7c1.3-1.4,2.9-2.1,4.8-2.1c2.2,0,3.9,0.7,5.1,2.2c1.3,1.4,1.9,3.6,1.8,6.6h-9.7&#10;&#9;&#9;&#9;&#9;c0,1.1,0.3,2,0.9,2.7c0.6,0.6,1.3,1,2.2,1c0.6,0,1.1-0.2,1.5-0.5C636.6,964.1,636.9,963.6,637.2,962.9z M637.4,959&#10;&#9;&#9;&#9;&#9;c0-1.1-0.3-2-0.9-2.6c-0.6-0.6-1.2-0.9-2-0.9c-0.8,0-1.5,0.3-2.1,0.9c-0.6,0.6-0.8,1.4-0.8,2.5H637.4z" style="fill: rgb(88, 89, 91); fill-opacity: 0;"/>
			<path class="st1" d="M657.2,967.5h-3.6v-2.1c-0.6,0.8-1.3,1.5-2.1,1.9c-0.8,0.4-1.6,0.6-2.5,0.6c-1.7,0-3.1-0.7-4.3-2&#10;&#9;&#9;&#9;&#9;c-1.2-1.4-1.8-3.2-1.8-5.7c0-2.5,0.6-4.4,1.7-5.7c1.2-1.3,2.6-1.9,4.4-1.9c1.6,0,3,0.7,4.2,2v-7.3h3.9V967.5z M646.9,959.9&#10;&#9;&#9;&#9;&#9;c0,1.6,0.2,2.7,0.6,3.4c0.6,1,1.5,1.5,2.6,1.5c0.9,0,1.6-0.4,2.3-1.1c0.6-0.8,0.9-1.9,0.9-3.4c0-1.7-0.3-2.9-0.9-3.6&#10;&#9;&#9;&#9;&#9;c-0.6-0.7-1.4-1.1-2.3-1.1c-0.9,0-1.7,0.4-2.3,1.1C647.2,957.4,646.9,958.5,646.9,959.9z" style="fill: rgb(88, 89, 91); fill-opacity: 0;"/>
			<path class="st1" d="M667.6,967.5v-20.2h3.9v7.3c1.2-1.4,2.6-2,4.2-2c1.8,0,3.3,0.6,4.4,1.9c1.2,1.3,1.7,3.1,1.7,5.6&#10;&#9;&#9;&#9;&#9;c0,2.5-0.6,4.4-1.8,5.8c-1.2,1.3-2.6,2-4.3,2c-0.8,0-1.7-0.2-2.5-0.6c-0.8-0.4-1.5-1-2.1-1.9v2.1H667.6z M671.4,959.9&#10;&#9;&#9;&#9;&#9;c0,1.5,0.2,2.6,0.7,3.4c0.7,1,1.6,1.5,2.7,1.5c0.9,0,1.6-0.4,2.2-1.1c0.6-0.7,0.9-1.9,0.9-3.4c0-1.7-0.3-2.9-0.9-3.6&#10;&#9;&#9;&#9;&#9;c-0.6-0.7-1.4-1.1-2.3-1.1c-0.9,0-1.7,0.4-2.3,1.1C671.7,957.3,671.4,958.4,671.4,959.9z" style="fill: rgb(88, 89, 91); fill-opacity: 0;"/>
			<path class="st1" d="M682.6,952.9h4.1l3.5,10.4l3.4-10.4h4l-5.2,14.1l-0.9,2.5c-0.3,0.9-0.7,1.5-1,2c-0.3,0.4-0.7,0.8-1.1,1.1&#10;&#9;&#9;&#9;&#9;c-0.4,0.3-0.9,0.5-1.5,0.7c-0.6,0.2-1.2,0.2-2,0.2c-0.7,0-1.5-0.1-2.2-0.2l-0.3-3c0.6,0.1,1.2,0.2,1.6,0.2c0.9,0,1.6-0.3,2-0.8&#10;&#9;&#9;&#9;&#9;c0.4-0.5,0.8-1.2,1-2L682.6,952.9z" style="fill: rgb(88, 89, 91); fill-opacity: 0;"/>
		</g>
	</g>
</svg>